<svg width="25" height="25" viewBox="0 0 25 25" fill="none" xmlns="http://www.w3.org/2000/svg">
<g clip-path="url(#clip0_55_201)">
<path d="M18.2789 2.87333C18.2789 2.7362 18.2518 2.60041 18.1991 2.4738C18.1464 2.34718 18.0692 2.23224 17.9719 2.13558C17.8746 2.03892 17.7592 1.96245 17.6323 1.91058C17.5053 1.85871 17.3694 1.83246 17.2322 1.83333H3.99222C3.85509 1.83246 3.71913 1.85871 3.59218 1.91058C3.46524 1.96245 3.3498 2.03892 3.25252 2.13558C3.15524 2.23224 3.07804 2.34718 3.02535 2.4738C2.97267 2.60041 2.94555 2.7362 2.94556 2.87333V19.46C2.94555 19.5971 2.97267 19.7329 3.02535 19.8595C3.07804 19.9862 3.15524 20.1011 3.25252 20.1978C3.3498 20.2944 3.46524 20.3709 3.59218 20.4228C3.71913 20.4746 3.85509 20.5009 3.99222 20.5H4.33889V3.21333H18.2789V2.87333Z" fill="#F3AD4F"/>
<path d="M19.9456 4.5H6.6123C6.06002 4.5 5.6123 4.94772 5.6123 5.5V22.1667C5.6123 22.719 6.06002 23.1667 6.6123 23.1667H19.9456C20.4979 23.1667 20.9456 22.719 20.9456 22.1667V5.5C20.9456 4.94772 20.4979 4.5 19.9456 4.5Z" fill="#F3AD4F"/>
</g>
<defs>
<clipPath id="clip0_55_201">
<rect width="24" height="24" fill="white" transform="translate(0.278931 0.5)"/>
</clipPath>
</defs>
</svg>
